<?xml version="1.0" encoding="UTF-8" standalone="no"?>
<!-- Created with Inkscape (http://www.inkscape.org/) -->

<svg width="48" height="48" viewBox="0 0 48 48" version="1.1" id="svg1" xml:space="preserve"
  xmlns="http://www.w3.org/2000/svg" xmlns:svg="http://www.w3.org/2000/svg">
  <defs id="defs1" />
  <g id="layer1">
    <rect style="fill:#121212;fill-opacity:1;stroke-width:0.822293" id="rect30" width="54.70742" height="57.851528"
      x="-2.6200857" y="-5.3449779" />
    <rect style="opacity:1;fill:#ffffff;fill-opacity:1;stroke-width:0.653162" id="rect1" width="31.650654"
      height="31.19043" x="7.9650664" y="9.3685207" ry="0" />
    <path style="fill:#121212;fill-opacity:1;stroke-width:0.284066"
      d="M 18.656931,47.157849 C 9.9566207,45.291617 3.0052352,38.675927 0.5286486,29.905023 -0.2659564,27.090899 -0.20238573,21.196374 0.65417082,18.266511 2.9151442,10.532818 8.6858945,4.6354007 16.502603,2.0701939 20.046883,0.90706962 24.574317,0.64117892 28.296371,1.3775651 42.450048,4.1777772 50.922643,18.363477 46.373248,31.64376 c -1.301821,3.800194 -2.82951,6.150154 -5.999336,9.228465 -2.396537,2.327349 -3.155092,2.871865 -5.774984,4.145438 -1.658828,0.80639 -3.791609,1.670523 -4.739511,1.920298 -2.46573,0.649736 -8.634125,0.770812 -11.202486,0.219888 z m 1.561315,-8.943081 c 0.187516,-0.220977 0.299527,-0.985949 0.250603,-1.711527 l -0.08846,-1.311967 -1.62153,-0.04424 c -1.780194,-0.04858 -2.556014,-0.51784 -3.323169,-2.010051 -0.23849,-0.463892 -0.832281,-1.254286 -1.319534,-1.756437 -0.867071,-0.893577 -0.871734,-0.913004 -0.219142,-0.913004 0.433329,0 1.114904,0.48312 1.946707,1.379879 1.361494,1.46781 2.233622,1.848573 3.57444,1.560561 0.593081,-0.127397 0.968959,-0.473471 1.312392,-1.20833 0.264699,-0.566389 0.531176,-1.124611 0.592167,-1.240493 0.06099,-0.115875 -0.175712,-0.210693 -0.526013,-0.210693 -2.102807,0 -4.588725,-1.585719 -5.473864,-3.491673 -0.775513,-1.669904 -0.731989,-4.607539 0.09099,-6.14116 0.452157,-0.842603 0.610158,-1.561411 0.54941,-2.499505 -0.167327,-2.583879 0.345379,-2.950201 2.580351,-1.843623 1.158537,0.573613 1.66121,0.629601 5.434495,0.605278 3.61309,-0.02328 4.327234,-0.105294 5.450466,-0.625909 1.84375,-0.854566 2.236723,-0.7949 2.460877,0.373641 0.103925,0.541799 0.129112,1.383878 0.05597,1.871288 -0.09011,0.600422 0.08361,1.256604 0.538702,2.03484 1.235251,2.112367 0.813404,5.966808 -0.843122,7.70363 -0.844876,0.885832 -2.469828,1.676043 -3.909526,1.901197 -1.249545,0.19541 -1.390035,0.352262 -0.816279,0.911352 0.224141,0.218409 0.413022,1.521562 0.502677,3.468145 0.183955,3.993998 0.302638,4.092892 3.219757,2.682891 5.054818,-2.443266 8.269973,-7.548152 8.269973,-13.130715 0,-4.053552 -1.423747,-7.353669 -4.425767,-10.258525 C 31.27693,11.208459 28.26019,9.9601016 23.970936,9.9601016 c -4.165431,0 -7.669318,1.4101604 -10.582045,4.2588074 -7.1513489,6.994017 -5.2579725,18.996751 3.687036,23.373306 2.320741,1.135475 2.651463,1.200999 3.142323,0.62256 z"
      id="path1" />
  </g>
</svg>