<?xml version="1.0" encoding="UTF-8" standalone="no"?>
<!-- Created with Inkscape (http://www.inkscape.org/) -->

<svg width="48" height="48" viewBox="0 0 48 48" version="1.1" id="svg1" xml:space="preserve"
  xmlns="http://www.w3.org/2000/svg" xmlns:svg="http://www.w3.org/2000/svg">
  <defs id="defs1" />
  <g id="layer1">
    <g id="layer1-5" style="opacity:1;fill:#121212;fill-opacity:1"
      transform="matrix(0.46205164,0,0,0.37817241,16.315333,-46.28534)">
      <rect style="fill:#ffffff;stroke-width:3.13612" id="rect1" width="151.51712" height="150.20528" x="-57.085541"
        y="113.52396" ry="0" />
    </g>
    <g id="layer1-7" style="opacity:1" transform="matrix(0.41013938,0,0,0.41013938,104.87133,1.0220183)" />
    <path style="fill:#121212;fill-opacity:1;stroke-width:0.209607"
      d="M -9.9563319,25.048035 V -3.2489083 H 24.943231 59.842795 V 25.048035 53.344978 H 24.943231 -9.9563319 Z"
      id="path29" />
    <path id="path29-0"
      d="m -206.79776,50.051505 h 12.28145 v 5.832505 c 2.60954,-3.838056 6.90817,-6.295083 11.82054,-6.295083 h 3.37749 c 7.8293,0 14.12337,6.449275 14.12337,14.125386 v 6.295082 7.52192 14.276228 h -12.2811 v -0.154194 -3.683863 0 -18.727701 0 c -0.15353,-4.759859 -3.37749,-8.443724 -8.13635,-8.443724 v 0 c -4.75919,0 -8.75043,3.683865 -8.90395,8.443724 v 0 16.270676 6.295082 h -12.28145 z m -13.6628,-21.184728 c 4.14476,0 7.52225,3.375478 7.52225,7.521919 0,4.143089 -3.37749,7.52192 -7.52225,7.52192 -4.1451,0 -7.36907,-3.378831 -7.36907,-7.52192 0,-4.146441 3.22397,-7.521919 7.36907,-7.521919 z m -6.14089,21.184728 h 12.43496 v 41.756038 h -12.43496 V 50.051505"
      style="opacity:1;fill:#ffffff;fill-opacity:1;fill-rule:evenodd;stroke:none;stroke-width:0.0335201"
      transform="matrix(0.41013938,0,0,0.41013938,104.87133,1.0220183)" />
  </g>
</svg>