<?xml version="1.0" encoding="UTF-8" standalone="no"?>
<!-- Created with Inkscape (http://www.inkscape.org/) -->

<svg width="48" height="48" viewBox="0 0 48 48" version="1.1" id="svg1" xml:space="preserve"
  xmlns="http://www.w3.org/2000/svg" xmlns:svg="http://www.w3.org/2000/svg">
  <defs id="defs1" />
  <g id="layer1">
    <rect style="fill:#121212;fill-opacity:1" id="rect30" width="61.205238" height="51.35371" x="-5.8689957"
      y="-0.83842796" />
    <g id="layer1-5" style="opacity:1;fill:#121212;fill-opacity:1"
      transform="matrix(0.31956266,0,0,0.31956266,2.0352311,8.5305765)">
      <rect style="fill:#ffffff;stroke-width:1.62256" id="rect1" width="78.710197" height="77.398354" x="27.738949"
        y="11.348725" ry="0" />
      <path id="path77"
        d="m 104.20984,13.901095 c -2.60491,2.502925 -4.933324,5.266665 -7.418166,7.889132 -5.773716,6.092521 -11.529242,12.203164 -17.288409,18.310183 -1.069612,1.133748 -2.099204,2.300082 -3.259767,3.343285 -0.418387,0.376707 -0.287413,0.742548 -0.03275,1.137368 1.327919,2.042913 2.641285,4.093073 3.972843,6.128745 2.39389,3.658413 4.802336,7.309587 7.203502,10.964376 2.848658,4.335767 5.722788,8.649796 8.535063,13.007292 2.470291,3.825036 4.991514,7.617477 7.509134,11.409902 0.0764,0.11228 0.15642,0.224584 0.21826,0.344122 0.0944,0.195592 0.30925,0.391194 0.19283,0.615766 -0.12733,0.242687 -0.41109,0.123195 -0.62212,0.123195 -6.810598,0.0038 -13.624816,-0.0062 -20.439042,0.0111 -0.585741,0 -0.95683,-0.170242 -1.280624,-0.670105 -2.92506,-4.524121 -5.864671,-9.037373 -8.811559,-13.546997 -3.168811,-4.850121 -6.348545,-9.69299 -9.524636,-14.53586 -0.418379,-0.641126 -0.37108,-0.594045 -0.865875,-0.0435 -1.120546,1.23517 -2.306576,2.416002 -3.448945,3.633062 -2.688579,2.861536 -5.362606,5.737561 -8.051194,8.59909 -4.322104,4.607425 -8.65876,9.203987 -12.962669,13.825909 -0.542079,0.575927 -1.113266,0.843973 -1.899108,0.833103 -1.695363,-0.01824 -4.242068,-0.94177 -5.93743,-0.811367 -0.171,0.0111 -0.41112,0.07245 -0.472958,-0.144883 -0.0764,-0.268045 0.145523,-0.456402 0.31288,-0.630267 1.080521,-1.122885 24.550124,-26.250033 28.828567,-30.929905 0.305602,-0.336863 0.382005,-0.601295 0.116428,-1.003353 -4.15476,-6.306244 -7.469096,-11.351954 -11.609289,-17.66544 -3.190652,-4.864598 -6.363102,-9.736454 -9.546465,-14.601061 -1.640795,-2.510184 -3.288866,-5.01311 -4.936942,-7.519668 -0.09457,-0.148513 -0.269225,-0.28615 -0.207376,-0.470878 0.05816,-0.181114 0.258313,-0.141273 0.414749,-0.130407 3.528982,0.217327 7.061608,0.01817 9.480974,0.08331 4.551301,0 7.989337,0.0107 11.431012,-0.0107 0.571186,-0.0038 0.858604,0.202841 1.160573,0.695466 1.244236,2.013935 2.553967,3.98803 3.852774,5.965747 3.830959,5.846213 12.282341,18.661534 13.115476,19.730081 0.545718,0.702704 0.52389,0.670101 1.091438,0.01818 1.986421,-2.281979 20.082498,-21.273139 23.011196,-24.406335 0.258312,-0.275285 0.516614,-0.383955 0.880428,-0.38757 1.89911,-0.02176 4.958797,0.137637 6.945217,0.318752 0.171,0.01818 0.382,-0.06158 0.49842,0.126769 0.10552,0.173864 -0.0436,0.286159 -0.15644,0.394821 z M 67.380999,-25.236702 c -41.336467,0 -74.8473197,33.3640165 -74.8473197,74.519362 0,41.155351 33.5108527,74.51937 74.8473197,74.51937 41.336491,0 74.847341,-33.364019 74.847341,-74.51937 0,-41.1553455 -33.51085,-74.519362 -74.847341,-74.519362"
        style="fill:#121212;fill-opacity:1;fill-rule:nonzero;stroke:none;stroke-width:0.0363014" />
      <path id="path78"
        d="m 68.251165,42.80696 c -2.189188,-3.358579 -4.374989,-6.720558 -6.560789,-10.079135 -2.138197,-3.283793 -4.283208,-6.567584 -6.414605,-9.858178 -0.217562,-0.336538 -0.469114,-0.496306 -0.870238,-0.489509 -0.928028,0.01701 -1.852668,0.0069 -2.780684,0.0069 0,-0.0034 0,-0.0034 0,-0.0034 -0.911039,0 -1.822067,-0.0034 -2.729706,0.0034 -0.152959,0 -0.353533,-0.09178 -0.445313,0.06119 -0.0986,0.159775 0.0748,0.292346 0.156371,0.421521 1.12859,1.73368 2.26058,3.46396 3.39257,5.19084 3.052637,4.670737 6.105275,9.338073 9.154512,14.008809 2.535933,3.878683 5.061665,7.764163 7.590797,11.646247 2.294569,3.525147 4.585751,7.050295 6.883722,10.572043 2.077014,3.178413 4.167628,6.346626 6.227646,9.531836 0.261754,0.401128 0.543902,0.550698 0.999416,0.540499 1.818663,-0.04079 3.637329,-0.06459 5.45599,0.01359 0.139373,0.0034 0.309343,0.05099 0.390928,-0.09518 0.08159,-0.152963 -0.06459,-0.268548 -0.135967,-0.377329 -1.713283,-2.624295 -3.433367,-5.245212 -5.150048,-7.869525 -2.709298,-4.143841 -5.415199,-8.294474 -8.124495,-12.438308 -2.348964,-3.596535 -4.697936,-7.189669 -7.040095,-10.786203"
        style="fill:#121212;fill-opacity:1;fill-rule:nonzero;stroke:none;stroke-width:0.0339936" />
    </g>
  </g>
</svg>